<?xml version="1.0" encoding="UTF-8"?>
<svg id="icon-lp" data-name="icon" xmlns="http://www.w3.org/2000/svg" viewBox="0 0 306 306">
  <rect x="152.5" width="1" height="5"/>
  <rect x="153" width="0" height="5" transform="translate(306 5) rotate(180)"/>
  <rect x="152.5" width="1" height="9"/>
  <rect x="149.87" y=".02" width="1" height="5" transform="translate(-.02 2.62) rotate(-1)"/>
  <rect x="147.25" y=".09" width="1" height="5" transform="translate(0 5.16) rotate(-2)"/>
  <rect x="144.62" y=".21" width="1" height="5" transform="translate(.06 7.6) rotate(-3)"/>
  <rect x="142" y=".37" width="1" height="5" transform="translate(.15 9.95) rotate(-4)"/>
  <rect x="139.38" y=".57" width="1" height="5" transform="translate(.26 12.2) rotate(-5)"/>
  <rect x="136.77" y=".82" width="1" height="5" transform="translate(.4 14.37) rotate(-6)"/>
  <rect x="134.16" y="1.12" width="1" height="5" transform="translate(.56 16.44) rotate(-7)"/>
  <rect x="131.55" y="1.46" width="1" height="5" transform="translate(.73 18.42) rotate(-8)"/>
  <rect x="128.96" y="1.85" width="1" height="5" transform="translate(.91 20.31) rotate(-9)"/>
  <rect x="126.37" y="2.29" width="1" height="5" transform="translate(1.1 22.1) rotate(-10)"/>
  <rect x="123.78" y="2.77" width="1" height="5" transform="translate(1.28 23.81) rotate(-11)"/>
  <rect x="121.21" y="3.29" width="1" height="5" transform="translate(1.46 25.43) rotate(-12)"/>
  <rect x="118.64" y="3.86" width="1" height="5" transform="translate(1.62 26.96) rotate(-13)"/>
  <rect x="116.09" y="4.47" width="1" height="5" transform="translate(1.78 28.41) rotate(-14)"/>
  <rect x="113.55" y="5.13" width="1" height="5" transform="translate(1.91 29.78) rotate(-15)"/>
  <rect x="111.02" y="5.83" width="1" height="5" transform="translate(2.02 31.06) rotate(-16)"/>
  <rect x="108.5" y="6.58" width="1" height="5" transform="translate(2.11 32.26) rotate(-17)"/>
  <rect x="105.99" y="7.37" width="1" height="5" transform="translate(2.16 33.39) rotate(-18)"/>
  <rect x="103.5" y="8.2" width="1" height="5" transform="translate(2.18 34.44) rotate(-19)"/>
  <rect x="101.03" y="9.08" width="1" height="5" transform="translate(2.16 35.42) rotate(-20)"/>
  <rect x="98.57" y="10" width="1" height="5" transform="translate(2.1 36.33) rotate(-21)"/>
  <rect x="96.12" y="10.96" width="1" height="5" transform="translate(1.99 37.18) rotate(-22)"/>
  <rect x="93.69" y="11.96" width="1" height="5" transform="translate(1.84 37.95) rotate(-23)"/>
  <rect x="91.29" y="13.01" width="1" height="5" transform="translate(1.63 38.67) rotate(-24)"/>
  <rect x="88.9" y="14.1" width="1" height="5" transform="translate(1.36 39.34) rotate(-25)"/>
  <rect x="86.53" y="15.23" width="1" height="5" transform="translate(1.03 39.94) rotate(-26)"/>
  <rect x="84.17" y="16.4" width="1" height="5" transform="translate(.65 40.5) rotate(-27)"/>
  <rect x="81.84" y="17.62" width="1" height="5" transform="translate(.19 41.01) rotate(-28)"/>
  <rect x="79.54" y="18.87" width="1" height="5" transform="translate(-.33 41.48) rotate(-29)"/>
  <rect x="77.25" y="20.16" width="1" height="5" transform="translate(-.92 41.91) rotate(-30)"/>
  <rect x="74.99" y="21.5" width="1" height="5" transform="translate(-1.58 42.31) rotate(-31)"/>
  <rect x="72.75" y="22.87" width="1" height="5" transform="translate(-2.31 42.67) rotate(-32)"/>
  <rect x="70.53" y="24.28" width="1" height="5" transform="translate(-3.13 43.01) rotate(-33)"/>
  <rect x="68.34" y="25.73" width="1" height="5" transform="translate(-4.02 43.32) rotate(-34)"/>
  <rect x="66.18" y="27.22" width="1" height="5" transform="translate(-4.99 43.62) rotate(-35)"/>
  <rect x="64.04" y="28.74" width="1" height="5" transform="translate(-6.04 43.9) rotate(-36)"/>
  <rect x="61.93" y="30.31" width="1" height="5" transform="translate(-7.17 44.18) rotate(-37)"/>
  <rect x="59.84" y="31.9" width="1" height="5" transform="translate(-8.39 44.44) rotate(-38)"/>
  <rect x="57.79" y="33.54" width="1" height="5" transform="translate(-9.69 44.71) rotate(-39)"/>
  <rect x="55.76" y="35.21" width="1" height="5" transform="translate(-11.08 44.99) rotate(-40)"/>
  <rect x="53.76" y="36.92" width="1" height="5" transform="translate(-12.55 45.27) rotate(-41)"/>
  <rect x="51.8" y="38.66" width="1" height="5" transform="translate(-14.11 45.56) rotate(-42)"/>
  <rect x="49.86" y="40.43" width="1" height="5" transform="translate(-15.75 45.88) rotate(-43)"/>
  <rect x="47.95" y="42.24" width="1" height="5" transform="translate(-17.48 46.22) rotate(-44)"/>
  <rect x="46.08" y="44.08" width="1" height="5" transform="translate(-19.29 46.58) rotate(-45)"/>
  <rect x="44.24" y="45.95" width="1" height="5" transform="translate(-21.19 46.98) rotate(-46)"/>
  <rect x="42.43" y="47.86" width="1" height="5" transform="translate(-23.18 47.41) rotate(-47)"/>
  <rect x="40.66" y="49.8" width="1" height="5" transform="translate(-25.25 47.89) rotate(-48)"/>
  <rect x="38.92" y="51.76" width="1" height="5" transform="translate(-27.4 48.41) rotate(-49)"/>
  <rect x="37.21" y="53.76" width="1" height="5" transform="translate(-29.63 48.98) rotate(-50)"/>
  <rect x="35.54" y="55.79" width="1" height="5" transform="translate(-31.94 49.61) rotate(-51)"/>
  <rect x="33.9" y="57.84" width="1" height="5" transform="translate(-34.33 50.3) rotate(-52)"/>
  <rect x="32.31" y="59.93" width="1" height="5" transform="translate(-36.79 51.06) rotate(-53)"/>
  <rect x="30.74" y="62.04" width="1" height="5" transform="translate(-39.33 51.88) rotate(-54)"/>
  <rect x="29.22" y="64.18" width="1" height="5" transform="translate(-41.95 52.78) rotate(-55)"/>
  <rect x="27.73" y="66.34" width="1" height="5" transform="translate(-44.63 53.75) rotate(-56)"/>
  <rect x="26.28" y="68.53" width="1" height="5" transform="translate(-47.38 54.8) rotate(-57)"/>
  <rect x="24.87" y="70.75" width="1" height="5" transform="translate(-50.19 55.95) rotate(-58)"/>
  <rect x="23.5" y="72.99" width="1" height="5" transform="translate(-53.07 57.18) rotate(-59)"/>
  <rect x="22.16" y="75.25" width="1" height="5" transform="translate(-56 58.5) rotate(-60)"/>
  <rect x="20.87" y="77.54" width="1" height="5" transform="translate(-58.99 59.92) rotate(-61)"/>
  <rect x="19.62" y="79.84" width="1" height="5" transform="translate(-62.03 61.45) rotate(-62)"/>
  <rect x="18.4" y="82.17" width="1" height="5" transform="translate(-65.12 63.08) rotate(-63)"/>
  <rect x="17.23" y="84.53" width="1" height="5" transform="translate(-68.26 64.81) rotate(-64)"/>
  <rect x="16.1" y="86.9" width="1" height="5" transform="translate(-71.44 66.66) rotate(-65)"/>
  <rect x="15.01" y="89.29" width="1" height="5" transform="translate(-74.65 68.62) rotate(-66)"/>
  <rect x="13.96" y="91.69" width="1" height="5" transform="translate(-77.89 70.7) rotate(-67)"/>
  <rect x="12.96" y="94.12" width="1" height="5" transform="translate(-81.17 72.91) rotate(-68)"/>
  <rect x="12" y="96.57" width="1" height="5" transform="translate(-84.47 75.23) rotate(-69)"/>
  <rect x="11.08" y="99.03" width="1" height="5" transform="translate(-87.79 77.68) rotate(-70)"/>
  <rect x="10.2" y="101.5" width="1" height="5" transform="translate(-91.12 80.26) rotate(-71)"/>
  <rect x="9.37" y="103.99" width="1" height="5" transform="translate(-94.46 82.97) rotate(-72)"/>
  <rect x="8.58" y="106.5" width="1" height="5" transform="translate(-97.81 85.81) rotate(-73)"/>
  <rect x="7.83" y="109.02" width="1" height="5" transform="translate(-101.16 88.79) rotate(-74)"/>
  <rect x="7.13" y="111.55" width="1" height="5" transform="translate(-104.51 91.9) rotate(-75)"/>
  <rect x="6.47" y="114.09" width="1" height="5" transform="translate(-107.84 95.15) rotate(-76)"/>
  <rect x="5.86" y="116.64" width="1" height="5" transform="translate(-111.16 98.54) rotate(-77)"/>
  <rect x="5.29" y="119.21" width="1" height="5" transform="translate(-114.46 102.07) rotate(-78)"/>
  <rect x="4.77" y="121.78" width="1" height="5" transform="translate(-117.74 105.74) rotate(-79)"/>
  <rect x="4.29" y="124.37" width="1" height="5" transform="translate(-120.98 109.55) rotate(-80)"/>
  <rect x="3.85" y="126.96" width="1" height="5" transform="translate(-124.19 113.5) rotate(-81)"/>
  <rect x="3.46" y="129.55" width="1" height="5" transform="translate(-127.36 117.6) rotate(-82)"/>
  <rect x="3.12" y="132.16" width="1" height="5" transform="translate(-130.47 121.84) rotate(-83)"/>
  <rect x="2.82" y="134.77" width="1" height="5" transform="translate(-133.54 126.23) rotate(-84)"/>
  <rect x="2.57" y="137.38" width="1" height="5" transform="translate(-136.55 130.75) rotate(-85)"/>
  <rect x="2.37" y="140" width="1" height="5" transform="translate(-139.49 135.42) rotate(-86)"/>
  <rect x="2.21" y="142.62" width="1" height="5" transform="translate(-142.36 140.23) rotate(-87)"/>
  <rect x="2.09" y="145.25" width="1" height="5" transform="translate(-145.16 145.18) rotate(-88)"/>
  <rect x="2.02" y="147.87" width="1" height="5" transform="translate(-147.87 150.27) rotate(-89)"/>
  <rect x="2.02" y="153.13" width="1" height="5" transform="translate(-153.04 160.87) rotate(-91)"/>
  <rect x="2.09" y="155.75" width="1" height="5" transform="translate(-155.47 166.37) rotate(-92)"/>
  <rect x="2.21" y="158.38" width="1" height="5" transform="translate(-157.81 172) rotate(-93)"/>
  <rect x="2.37" y="161" width="1" height="5" transform="translate(-160.03 177.76) rotate(-94)"/>
  <rect x="2.57" y="163.62" width="1" height="5" transform="translate(-162.14 183.66) rotate(-95)"/>
  <rect x="2.82" y="166.23" width="1" height="5" transform="translate(-164.14 189.68) rotate(-96)"/>
  <rect x="3.12" y="168.84" width="1" height="5" transform="translate(-166 195.82) rotate(-97)"/>
  <rect x="3.46" y="171.45" width="1" height="5" transform="translate(-167.74 202.08) rotate(-98)"/>
  <rect x="3.85" y="174.04" width="1" height="5" transform="translate(-169.34 208.46) rotate(-99)"/>
  <rect x="4.29" y="176.63" width="1" height="5" transform="translate(-170.8 214.95) rotate(-100)"/>
  <rect x="4.77" y="179.22" width="1" height="5" transform="translate(-172.11 221.56) rotate(-101)"/>
  <rect x="5.29" y="181.79" width="1" height="5" transform="translate(-173.27 228.27) rotate(-102)"/>
  <rect x="5.86" y="184.36" width="1" height="5" transform="translate(-174.28 235.08) rotate(-103)"/>
  <rect x="6.47" y="186.91" width="1" height="5" transform="translate(-175.13 241.99) rotate(-104)"/>
  <rect x="7.13" y="189.45" width="1" height="5" transform="translate(-175.81 249) rotate(-105)"/>
  <rect x="7.83" y="191.98" width="1" height="5" transform="translate(-176.32 256.1) rotate(-106)"/>
  <rect x="8.58" y="194.5" width="1" height="5" transform="translate(-176.66 263.28) rotate(-107)"/>
  <rect x="9.37" y="197.01" width="1" height="5" transform="translate(-176.83 270.54) rotate(-108)"/>
  <rect x="10.2" y="199.5" width="1" height="5" transform="translate(-176.81 277.88) rotate(-109)"/>
  <rect x="11.08" y="201.97" width="1" height="5" transform="translate(-176.61 285.29) rotate(-110)"/>
  <rect x="12" y="204.43" width="1" height="5" transform="translate(-176.22 292.76) rotate(-111)"/>
  <rect x="12.96" y="206.88" width="1" height="5" transform="translate(-175.63 300.29) rotate(-112)"/>
  <rect x="13.96" y="209.31" width="1" height="5" transform="translate(-174.85 307.88) rotate(-113)"/>
  <rect x="15.01" y="211.71" width="1" height="5" transform="translate(-173.87 315.51) rotate(-114)"/>
  <rect x="16.1" y="214.1" width="1" height="5" transform="translate(-172.69 323.19) rotate(-115)"/>
  <rect x="17.23" y="216.47" width="1" height="5" transform="translate(-171.31 330.9) rotate(-116)"/>
  <rect x="18.4" y="218.83" width="1" height="5" transform="translate(-169.72 338.65) rotate(-117)"/>
  <rect x="19.62" y="221.16" width="1" height="5" transform="translate(-167.92 346.42) rotate(-118)"/>
  <rect x="20.87" y="223.46" width="1" height="5" transform="translate(-165.9 354.2) rotate(-119)"/>
  <rect x="22.16" y="225.75" width="1" height="5" transform="translate(-163.68 362) rotate(-120)"/>
  <rect x="23.5" y="228.01" width="1" height="5" transform="translate(-161.23 369.81) rotate(-121)"/>
  <rect x="24.87" y="230.25" width="1" height="5" transform="translate(-158.57 377.61) rotate(-122)"/>
  <rect x="26.28" y="232.47" width="1" height="5" transform="translate(-155.7 385.4) rotate(-123)"/>
  <rect x="27.73" y="234.66" width="1" height="5" transform="translate(-152.6 393.18) rotate(-124)"/>
  <rect x="29.22" y="236.82" width="1" height="5" transform="translate(-149.28 400.94) rotate(-125)"/>
  <rect x="30.74" y="238.96" width="1" height="5" transform="translate(-145.74 408.67) rotate(-126)"/>
  <rect x="32.31" y="241.07" width="1" height="5" transform="translate(-141.98 416.36) rotate(-127)"/>
  <rect x="33.9" y="243.16" width="1" height="5" transform="translate(-137.99 424.01) rotate(-128)"/>
  <rect x="35.54" y="245.21" width="1" height="5" transform="translate(-133.79 431.61) rotate(-129)"/>
  <rect x="37.21" y="247.24" width="1" height="5" transform="translate(-129.36 439.16) rotate(-130)"/>
  <rect x="38.92" y="249.24" width="1" height="5" transform="translate(-124.71 446.64) rotate(-131)"/>
  <rect x="40.66" y="251.2" width="1" height="5" transform="translate(-119.84 454.05) rotate(-132)"/>
  <rect x="42.43" y="253.14" width="1" height="5" transform="translate(-114.75 461.39) rotate(-133)"/>
  <rect x="44.24" y="255.05" width="1" height="5" transform="translate(-109.45 468.64) rotate(-134)"/>
  <rect x="46.08" y="256.92" width="1" height="5" transform="translate(-103.92 475.79) rotate(-135)"/>
  <rect x="47.95" y="258.76" width="1" height="5" transform="translate(-98.18 482.85) rotate(-136)"/>
  <rect x="49.86" y="260.57" width="1" height="5" transform="translate(-92.22 489.81) rotate(-137)"/>
  <rect x="51.8" y="262.34" width="1" height="5" transform="translate(-86.06 496.65) rotate(-138)"/>
  <rect x="53.76" y="264.08" width="1" height="5" transform="translate(-79.68 503.38) rotate(-139)"/>
  <rect x="55.76" y="265.79" width="1" height="5" transform="translate(-73.09 509.98) rotate(-140)"/>
  <rect x="57.79" y="267.46" width="1" height="5" transform="translate(-66.31 516.44) rotate(-141)"/>
  <rect x="59.84" y="269.1" width="1" height="5" transform="translate(-59.32 522.77) rotate(-142)"/>
  <rect x="61.93" y="270.69" width="1" height="5" transform="translate(-52.13 528.95) rotate(-143)"/>
  <rect x="64.04" y="272.26" width="1" height="5" transform="translate(-44.75 534.97) rotate(-144)"/>
  <rect x="66.18" y="273.78" width="1" height="5" transform="translate(-37.17 540.84) rotate(-145)"/>
  <rect x="68.34" y="275.27" width="1" height="5" transform="translate(-29.41 546.55) rotate(-146)"/>
  <rect x="70.53" y="276.72" width="1" height="5" transform="translate(-21.47 552.08) rotate(-147)"/>
  <rect x="72.75" y="278.13" width="1" height="5" transform="translate(-13.35 557.44) rotate(-148)"/>
  <rect x="74.99" y="279.5" width="1" height="5" transform="translate(-5.05 562.61) rotate(-149)"/>
  <rect x="77.25" y="280.84" width="1" height="5" transform="translate(3.42 567.59) rotate(-150)"/>
  <rect x="79.54" y="282.13" width="1" height="5" transform="translate(12.05 572.38) rotate(-151)"/>
  <rect x="81.84" y="283.38" width="1" height="5" transform="translate(20.84 576.96) rotate(-152)"/>
  <rect x="84.17" y="284.6" width="1" height="5" transform="translate(29.78 581.34) rotate(-153)"/>
  <rect x="86.53" y="285.77" width="1" height="5" transform="translate(38.87 585.51) rotate(-154)"/>
  <rect x="88.9" y="286.9" width="1" height="5" transform="translate(48.11 589.46) rotate(-155)"/>
  <rect x="91.29" y="287.99" width="1" height="5" transform="translate(57.48 593.2) rotate(-156)"/>
  <rect x="93.69" y="289.04" width="1" height="5" transform="translate(66.99 596.7) rotate(-157)"/>
  <rect x="96.12" y="290.04" width="1" height="5" transform="translate(76.62 599.98) rotate(-158)"/>
  <rect x="98.57" y="291" width="1" height="5" transform="translate(86.37 603.02) rotate(-159)"/>
  <rect x="101.03" y="291.92" width="1" height="5" transform="translate(96.23 605.82) rotate(-160)"/>
  <rect x="103.5" y="292.8" width="1" height="5" transform="translate(106.2 608.37) rotate(-161)"/>
  <rect x="105.99" y="293.63" width="1" height="5" transform="translate(116.26 610.68) rotate(-162)"/>
  <rect x="108.5" y="294.42" width="1" height="5" transform="translate(126.42 612.74) rotate(-163)"/>
  <rect x="111.02" y="295.17" width="1" height="5" transform="translate(136.66 614.55) rotate(-164)"/>
  <rect x="113.55" y="295.87" width="1" height="5" transform="translate(146.99 616.09) rotate(-165)"/>
  <rect x="116.09" y="296.53" width="1" height="5" transform="translate(157.38 617.38) rotate(-166)"/>
  <rect x="118.64" y="297.14" width="1" height="5" transform="translate(167.83 618.41) rotate(-167)"/>
  <rect x="121.21" y="297.71" width="1" height="5" transform="translate(178.34 619.17) rotate(-168)"/>
  <rect x="123.78" y="298.23" width="1" height="5" transform="translate(188.9 619.66) rotate(-169)"/>
  <rect x="126.37" y="298.71" width="1" height="5" transform="translate(199.5 619.88) rotate(-170)"/>
  <rect x="128.96" y="299.15" width="1" height="5" transform="translate(210.13 619.83) rotate(-171)"/>
  <rect x="131.55" y="299.54" width="1" height="5" transform="translate(220.79 619.51) rotate(-172)"/>
  <rect x="134.16" y="299.88" width="1" height="5" transform="translate(231.46 618.91) rotate(-173)"/>
  <rect x="136.77" y="300.18" width="1" height="5" transform="translate(242.15 618.04) rotate(-174)"/>
  <rect x="139.38" y="300.43" width="1" height="5" transform="translate(252.83 616.89) rotate(-175)"/>
  <rect x="142" y="300.63" width="1" height="5" transform="translate(263.51 615.47) rotate(-176)"/>
  <rect x="144.62" y="300.79" width="1" height="5" transform="translate(274.17 613.77) rotate(-177)"/>
  <rect x="147.25" y="300.91" width="1" height="5" transform="translate(284.82 611.79) rotate(-178)"/>
  <rect x="149.87" y="300.98" width="1" height="5" transform="translate(295.43 609.53) rotate(-179)"/>
  <rect x="155.13" y="300.98" width="1" height="5" transform="translate(316.53 604.19) rotate(179)"/>
  <rect x="157.75" y="300.91" width="1" height="5" transform="translate(327 601.11) rotate(178)"/>
  <rect x="160.38" y="300.79" width="1" height="5" transform="translate(337.41 597.75) rotate(177)"/>
  <rect x="163" y="300.63" width="1" height="5" transform="translate(347.74 594.12) rotate(176)"/>
  <rect x="165.62" y="300.43" width="1" height="5" transform="translate(358 590.22) rotate(175)"/>
  <rect x="168.23" y="300.18" width="1" height="5" transform="translate(368.18 586.06) rotate(174)"/>
  <rect x="170.84" y="299.88" width="1" height="5" transform="translate(378.26 581.62) rotate(173)"/>
  <rect x="173.45" y="299.54" width="1" height="5" transform="translate(388.23 576.92) rotate(172)"/>
  <rect x="176.04" y="299.15" width="1" height="5" transform="translate(398.1 571.96) rotate(171)"/>
  <rect x="178.63" y="298.71" width="1" height="5" transform="translate(407.85 566.74) rotate(170)"/>
  <rect x="181.22" y="298.23" width="1" height="5" transform="translate(417.48 561.27) rotate(169)"/>
  <rect x="183.79" y="297.71" width="1" height="5" transform="translate(426.97 555.55) rotate(168)"/>
  <rect x="186.36" y="297.14" width="1" height="5" transform="translate(436.33 549.57) rotate(167)"/>
  <rect x="188.91" y="296.53" width="1" height="5" transform="translate(445.53 543.35) rotate(166)"/>
  <rect x="191.45" y="295.87" width="1" height="5" transform="translate(454.59 536.9) rotate(165)"/>
  <rect x="193.98" y="295.17" width="1" height="5" transform="translate(463.48 530.2) rotate(164)"/>
  <rect x="196.5" y="294.42" width="1" height="5" transform="translate(472.21 523.28) rotate(163)"/>
  <rect x="199.01" y="293.63" width="1" height="5" transform="translate(480.76 516.12) rotate(162)"/>
  <rect x="201.5" y="292.8" width="1" height="5" transform="translate(489.13 508.75) rotate(161)"/>
  <rect x="203.97" y="291.92" width="1" height="5" transform="translate(497.32 501.16) rotate(160)"/>
  <rect x="206.43" y="291" width="1" height="5" transform="translate(505.31 493.35) rotate(159)"/>
  <rect x="208.88" y="290.04" width="1" height="5" transform="translate(513.1 485.35) rotate(158)"/>
  <rect x="211.31" y="289.04" width="1" height="5" transform="translate(520.68 477.14) rotate(157)"/>
  <rect x="213.71" y="287.99" width="1" height="5" transform="translate(528.06 468.73) rotate(156)"/>
  <rect x="216.1" y="286.9" width="1" height="5" transform="translate(535.22 460.14) rotate(155)"/>
  <rect x="218.47" y="285.77" width="1" height="5" transform="translate(542.16 451.37) rotate(154)"/>
  <rect x="220.83" y="284.6" width="1" height="5" transform="translate(548.87 442.42) rotate(153)"/>
  <rect x="223.16" y="283.38" width="1" height="5" transform="translate(555.35 433.3) rotate(152)"/>
  <rect x="225.46" y="282.13" width="1" height="5" transform="translate(561.59 424.02) rotate(151)"/>
  <rect x="227.75" y="280.84" width="1" height="5" transform="translate(567.59 414.59) rotate(150)"/>
  <rect x="230.01" y="279.5" width="1" height="5" transform="translate(573.34 405) rotate(149)"/>
  <rect x="232.25" y="278.13" width="1" height="5" transform="translate(578.85 395.28) rotate(148)"/>
  <rect x="234.47" y="276.72" width="1" height="5" transform="translate(584.1 385.42) rotate(147)"/>
  <rect x="236.66" y="275.27" width="1" height="5" transform="translate(589.1 375.43) rotate(146)"/>
  <rect x="238.82" y="273.78" width="1" height="5" transform="translate(593.83 365.33) rotate(145)"/>
  <rect x="240.96" y="272.26" width="1" height="5" transform="translate(598.31 355.11) rotate(144)"/>
  <rect x="243.07" y="270.69" width="1" height="5" transform="translate(602.51 344.79) rotate(143)"/>
  <rect x="245.16" y="269.1" width="1" height="5" transform="translate(606.45 334.37) rotate(142)"/>
  <rect x="247.21" y="267.46" width="1" height="5" transform="translate(610.11 323.87) rotate(141)"/>
  <rect x="249.24" y="265.79" width="1" height="5" transform="translate(613.5 313.28) rotate(140)"/>
  <rect x="251.24" y="264.08" width="1" height="5" transform="translate(616.62 302.62) rotate(139)"/>
  <rect x="253.2" y="262.34" width="1" height="5" transform="translate(619.46 291.9) rotate(138)"/>
  <rect x="255.14" y="260.57" width="1" height="5" transform="translate(622.02 281.12) rotate(137)"/>
  <rect x="257.05" y="258.76" width="1" height="5" transform="translate(624.3 270.29) rotate(136)"/>
  <rect x="258.92" y="256.92" width="1" height="5" transform="translate(626.29 259.42) rotate(135)"/>
  <rect x="260.76" y="255.05" width="1" height="5" transform="translate(628.01 248.52) rotate(134)"/>
  <rect x="262.57" y="253.14" width="1" height="5" transform="translate(629.44 237.59) rotate(133)"/>
  <rect x="264.34" y="251.2" width="1" height="5" transform="translate(630.6 226.65) rotate(132)"/>
  <rect x="266.08" y="249.24" width="1" height="5" transform="translate(631.47 215.7) rotate(131)"/>
  <rect x="267.79" y="247.24" width="1" height="5" transform="translate(632.05 204.75) rotate(130)"/>
  <rect x="269.46" y="245.21" width="1" height="5" transform="translate(632.36 193.8) rotate(129)"/>
  <rect x="271.1" y="243.16" width="1" height="5" transform="translate(632.39 182.88) rotate(128)"/>
  <rect x="272.69" y="241.07" width="1" height="5" transform="translate(632.13 171.98) rotate(127)"/>
  <rect x="274.26" y="238.96" width="1" height="5" transform="translate(631.6 161.11) rotate(126)"/>
  <rect x="275.78" y="236.82" width="1" height="5" transform="translate(630.79 150.28) rotate(125)"/>
  <rect x="277.27" y="234.66" width="1" height="5" transform="translate(629.71 139.49) rotate(124)"/>
  <rect x="278.72" y="232.47" width="1" height="5" transform="translate(628.35 128.77) rotate(123)"/>
  <rect x="280.13" y="230.25" width="1" height="5" transform="translate(626.73 118.1) rotate(122)"/>
  <rect x="281.5" y="228.01" width="1" height="5" transform="translate(624.83 107.51) rotate(121)"/>
  <rect x="282.84" y="225.75" width="1" height="5" transform="translate(622.68 97) rotate(120)"/>
  <rect x="284.13" y="223.46" width="1" height="5" transform="translate(620.25 86.57) rotate(119)"/>
  <rect x="285.38" y="221.16" width="1" height="5" transform="translate(617.57 76.24) rotate(118)"/>
  <rect x="286.6" y="218.83" width="1" height="5" transform="translate(614.64 66) rotate(117)"/>
  <rect x="287.77" y="216.47" width="1" height="5" transform="translate(611.45 55.87) rotate(116)"/>
  <rect x="288.9" y="214.1" width="1" height="5" transform="translate(608.01 45.86) rotate(115)"/>
  <rect x="289.99" y="211.71" width="1" height="5" transform="translate(604.34 35.97) rotate(114)"/>
  <rect x="291.04" y="209.31" width="1" height="5" transform="translate(600.42 26.2) rotate(113)"/>
  <rect x="292.04" y="206.88" width="1" height="5" transform="translate(596.26 16.57) rotate(112)"/>
  <rect x="293" y="204.43" width="1" height="5" transform="translate(591.88 7.08) rotate(111)"/>
  <rect x="293.92" y="201.97" width="1" height="5" transform="translate(587.27 -2.26) rotate(110)"/>
  <rect x="294.8" y="199.5" width="1" height="5" transform="translate(582.43 -11.45) rotate(109)"/>
  <rect x="295.63" y="197.01" width="1" height="5" transform="translate(577.39 -20.48) rotate(108)"/>
  <rect x="296.42" y="194.5" width="1" height="5" transform="translate(572.13 -29.35) rotate(107)"/>
  <rect x="297.17" y="191.98" width="1" height="5" transform="translate(566.67 -38.05) rotate(106)"/>
  <rect x="297.87" y="189.45" width="1" height="5" transform="translate(561.01 -46.57) rotate(105)"/>
  <rect x="298.53" y="186.91" width="1" height="5" transform="translate(555.15 -54.92) rotate(104)"/>
  <rect x="299.14" y="184.36" width="1" height="5" transform="translate(549.11 -63.07) rotate(103)"/>
  <rect x="299.71" y="181.79" width="1" height="5" transform="translate(542.89 -71.04) rotate(102)"/>
  <rect x="300.23" y="179.22" width="1" height="5" transform="translate(536.5 -78.82) rotate(101)"/>
  <rect x="300.71" y="176.63" width="1" height="5" transform="translate(529.93 -86.4) rotate(100)"/>
  <rect x="301.15" y="174.04" width="1" height="5" transform="translate(523.2 -93.77) rotate(99)"/>
  <rect x="301.54" y="171.45" width="1" height="5" transform="translate(516.32 -100.94) rotate(98)"/>
  <rect x="301.88" y="168.84" width="1" height="5" transform="translate(509.29 -107.9) rotate(97)"/>
  <rect x="302.18" y="166.23" width="1" height="5" transform="translate(502.12 -114.65) rotate(96)"/>
  <rect x="302.43" y="163.62" width="1" height="5" transform="translate(494.81 -121.18) rotate(95)"/>
  <rect x="302.63" y="161" width="1" height="5" transform="translate(487.38 -127.49) rotate(94)"/>
  <rect x="302.79" y="158.38" width="1" height="5" transform="translate(479.82 -133.58) rotate(93)"/>
  <rect x="302.91" y="155.75" width="1" height="5" transform="translate(472.15 -139.45) rotate(92)"/>
  <rect x="302.98" y="153.13" width="1" height="5" transform="translate(464.38 -145.09) rotate(91)"/>
  <rect x="302.98" y="147.87" width="1" height="5" transform="translate(448.53 -155.68) rotate(89)"/>
  <rect x="302.91" y="145.25" width="1" height="5" transform="translate(440.48 -160.63) rotate(88)"/>
  <rect x="302.79" y="142.62" width="1" height="5" transform="translate(432.35 -165.35) rotate(87)"/>
  <rect x="302.63" y="140" width="1" height="5" transform="translate(424.14 -169.83) rotate(86)"/>
  <rect x="302.43" y="137.38" width="1" height="5" transform="translate(415.88 -174.08) rotate(85)"/>
  <rect x="302.18" y="134.77" width="1" height="5" transform="translate(407.55 -178.1) rotate(84)"/>
  <rect x="301.88" y="132.16" width="1" height="5" transform="translate(399.18 -181.88) rotate(83)"/>
  <rect x="301.54" y="129.55" width="1" height="5" transform="translate(390.77 -185.42) rotate(82)"/>
  <rect x="301.15" y="126.96" width="1" height="5" transform="translate(382.32 -188.73) rotate(81)"/>
  <rect x="300.71" y="124.37" width="1" height="5" transform="translate(373.85 -191.8) rotate(80)"/>
  <rect x="300.23" y="121.78" width="1" height="5" transform="translate(365.35 -194.64) rotate(79)"/>
  <rect x="299.71" y="119.21" width="1" height="5" transform="translate(356.84 -197.25) rotate(78)"/>
  <rect x="299.14" y="116.64" width="1" height="5" transform="translate(348.33 -199.62) rotate(77)"/>
  <rect x="298.53" y="114.09" width="1" height="5" transform="translate(339.82 -201.76) rotate(76)"/>
  <rect x="297.87" y="111.55" width="1" height="5" transform="translate(331.31 -203.68) rotate(75)"/>
  <rect x="297.17" y="109.02" width="1" height="5" transform="translate(322.82 -205.36) rotate(74)"/>
  <rect x="296.42" y="106.5" width="1" height="5" transform="translate(314.35 -206.82) rotate(73)"/>
  <rect x="295.63" y="103.99" width="1" height="5" transform="translate(305.9 -208.06) rotate(72)"/>
  <rect x="294.8" y="101.5" width="1" height="5" transform="translate(297.5 -209.07) rotate(71)"/>
  <rect x="293.92" y="99.03" width="1" height="5" transform="translate(289.13 -209.87) rotate(70)"/>
  <rect x="293" y="96.57" width="1" height="5" transform="translate(280.81 -210.45) rotate(69)"/>
  <rect x="292.04" y="94.12" width="1" height="5" transform="translate(272.54 -210.81) rotate(68)"/>
  <rect x="291.04" y="91.69" width="1" height="5" transform="translate(264.33 -210.97) rotate(67)"/>
  <rect x="289.99" y="89.29" width="1" height="5" transform="translate(256.19 -210.92) rotate(66)"/>
  <rect x="288.9" y="86.9" width="1" height="5" transform="translate(248.11 -210.67) rotate(65)"/>
  <rect x="287.77" y="84.53" width="1" height="5" transform="translate(240.12 -210.22) rotate(64)"/>
  <rect x="286.6" y="82.17" width="1" height="5" transform="translate(232.2 -209.57) rotate(63)"/>
  <rect x="285.38" y="79.84" width="1" height="5" transform="translate(224.38 -208.73) rotate(62)"/>
  <rect x="284.13" y="77.54" width="1" height="5" transform="translate(216.64 -207.71) rotate(61)"/>
  <rect x="282.84" y="75.25" width="1" height="5" transform="translate(209 -206.5) rotate(60)"/>
  <rect x="281.5" y="72.99" width="1" height="5" transform="translate(201.47 -205.12) rotate(59)"/>
  <rect x="280.13" y="70.75" width="1" height="5" transform="translate(194.04 -203.56) rotate(58)"/>
  <rect x="278.72" y="68.53" width="1" height="5" transform="translate(186.72 -201.83) rotate(57)"/>
  <rect x="277.27" y="66.34" width="1" height="5" transform="translate(179.52 -199.94) rotate(56)"/>
  <rect x="275.78" y="64.18" width="1" height="5" transform="translate(172.43 -197.88) rotate(55)"/>
  <rect x="274.26" y="62.04" width="1" height="5" transform="translate(165.47 -195.68) rotate(54)"/>
  <rect x="272.69" y="59.93" width="1" height="5" transform="translate(158.64 -193.33) rotate(53)"/>
  <rect x="271.1" y="57.84" width="1" height="5" transform="translate(151.94 -190.83) rotate(52)"/>
  <rect x="269.46" y="55.79" width="1" height="5" transform="translate(145.37 -188.19) rotate(51)"/>
  <rect x="267.79" y="53.76" width="1" height="5" transform="translate(138.93 -185.42) rotate(50)"/>
  <rect x="266.08" y="51.76" width="1" height="5" transform="translate(132.64 -182.53) rotate(49)"/>
  <rect x="264.34" y="49.8" width="1" height="5" transform="translate(126.49 -179.51) rotate(48)"/>
  <rect x="262.57" y="47.86" width="1" height="5" transform="translate(120.49 -176.38) rotate(47)"/>
  <rect x="260.76" y="45.95" width="1" height="5" transform="translate(114.63 -173.14) rotate(46)"/>
  <rect x="258.92" y="44.08" width="1" height="5" transform="translate(108.92 -169.79) rotate(45)"/>
  <rect x="257.05" y="42.24" width="1" height="5" transform="translate(103.36 -166.35) rotate(44)"/>
  <rect x="255.14" y="40.43" width="1" height="5" transform="translate(97.96 -162.81) rotate(43)"/>
  <rect x="253.2" y="38.66" width="1" height="5" transform="translate(92.7 -159.19) rotate(42)"/>
  <rect x="251.24" y="36.92" width="1" height="5" transform="translate(87.61 -155.49) rotate(41)"/>
  <rect x="249.24" y="35.21" width="1" height="5" transform="translate(82.67 -151.71) rotate(40)"/>
  <rect x="247.21" y="33.54" width="1" height="5" transform="translate(77.88 -147.86) rotate(39)"/>
  <rect x="245.16" y="31.9" width="1" height="5" transform="translate(73.26 -143.95) rotate(38)"/>
  <rect x="243.07" y="30.31" width="1" height="5" transform="translate(68.79 -139.98) rotate(37)"/>
  <rect x="240.96" y="28.74" width="1" height="5" transform="translate(64.48 -135.96) rotate(36)"/>
  <rect x="238.82" y="27.22" width="1" height="5" transform="translate(60.33 -131.9) rotate(35)"/>
  <rect x="236.66" y="25.73" width="1" height="5" transform="translate(56.33 -127.79) rotate(34)"/>
  <rect x="234.47" y="24.28" width="1" height="5" transform="translate(52.49 -123.65) rotate(33)"/>
  <rect x="232.25" y="22.87" width="1" height="5" transform="translate(48.81 -119.49) rotate(32)"/>
  <rect x="230.01" y="21.5" width="1" height="5" transform="translate(45.28 -115.3) rotate(31)"/>
  <rect x="227.75" y="20.16" width="1" height="5" transform="translate(41.91 -111.09) rotate(30)"/>
  <rect x="225.46" y="18.87" width="1" height="5" transform="translate(38.69 -106.87) rotate(29)"/>
  <rect x="223.16" y="17.62" width="1" height="5" transform="translate(35.62 -102.65) rotate(28)"/>
  <rect x="220.83" y="16.4" width="1" height="5" transform="translate(32.71 -98.42) rotate(27)"/>
  <rect x="218.47" y="15.23" width="1" height="5" transform="translate(29.93 -94.2) rotate(26)"/>
  <rect x="216.1" y="14.1" width="1" height="5" transform="translate(27.31 -89.99) rotate(25)"/>
  <rect x="213.71" y="13.01" width="1" height="5" transform="translate(24.83 -85.79) rotate(24)"/>
  <rect x="211.31" y="11.96" width="1" height="5" transform="translate(22.49 -81.61) rotate(23)"/>
  <rect x="208.88" y="10.96" width="1" height="5" transform="translate(20.29 -77.45) rotate(22)"/>
  <rect x="206.43" y="10" width="1" height="5" transform="translate(18.22 -73.33) rotate(21)"/>
  <rect x="203.97" y="9.08" width="1" height="5" transform="translate(16.29 -69.24) rotate(20)"/>
  <rect x="201.5" y="8.2" width="1" height="5" transform="translate(14.49 -65.18) rotate(19)"/>
  <rect x="199.01" y="7.37" width="1" height="5" transform="translate(12.81 -61.17) rotate(18)"/>
  <rect x="196.5" y="6.58" width="1" height="5" transform="translate(11.26 -57.2) rotate(17)"/>
  <rect x="193.98" y="5.83" width="1" height="5" transform="translate(9.83 -53.28) rotate(16)"/>
  <rect x="191.45" y="5.13" width="1" height="5" transform="translate(8.51 -49.42) rotate(15)"/>
  <rect x="188.91" y="4.47" width="1" height="5" transform="translate(7.31 -45.62) rotate(14)"/>
  <rect x="186.36" y="3.86" width="1" height="5" transform="translate(6.22 -41.87) rotate(13)"/>
  <rect x="183.79" y="3.29" width="1" height="5" transform="translate(5.23 -38.19) rotate(12)"/>
  <rect x="181.22" y="2.77" width="1" height="5" transform="translate(4.34 -34.58) rotate(11)"/>
  <rect x="178.63" y="2.29" width="1" height="5" transform="translate(3.55 -31.03) rotate(10)"/>
  <rect x="176.04" y="1.85" width="1" height="5" transform="translate(2.85 -27.56) rotate(9)"/>
  <rect x="173.45" y="1.46" width="1" height="5" transform="translate(2.24 -24.17) rotate(8)"/>
  <rect x="170.84" y="1.12" width="1" height="5" transform="translate(1.72 -20.85) rotate(7)"/>
  <rect x="168.23" y=".82" width="1" height="5" transform="translate(1.27 -17.62) rotate(6)"/>
  <rect x="165.62" y=".57" width="1" height="5" transform="translate(.9 -14.47) rotate(5)"/>
  <rect x="163" y=".37" width="1" height="5" transform="translate(.6 -11.4) rotate(4)"/>
  <rect x="160.38" y=".21" width="1" height="5" transform="translate(.36 -8.42) rotate(3)"/>
  <rect x="157.75" y=".09" width="1" height="5" transform="translate(.19 -5.52) rotate(2)"/>
  <rect x="155.13" y=".02" width="1" height="5" transform="translate(.07 -2.72) rotate(1)"/>
  <rect x="152.5" width="1" height="9" style="fill: blue;"/>
  <rect x="139.56" y=".57" width="1" height="9" transform="translate(.09 12.23) rotate(-5)"/>
  <rect x="126.71" y="2.26" width="1" height="9" transform="translate(.76 22.19) rotate(-10)"/>
  <rect x="114.06" y="5.06" width="1" height="9" transform="translate(1.43 29.98) rotate(-15)"/>
  <rect x="101.71" y="8.96" width="1" height="9" transform="translate(1.56 35.77) rotate(-20)"/>
  <rect x="89.74" y="13.91" width="1" height="9" transform="translate(.67 39.86) rotate(-25)"/>
  <rect x="78.25" y="19.9" width="1" height="9" transform="translate(-1.65 42.64) rotate(-30)"/>
  <rect x="67.32" y="26.86" width="1" height="9" transform="translate(-5.72 44.57) rotate(-35)"/>
  <rect x="57.05" y="34.74" width="1" height="9" transform="translate(-11.76 46.17) rotate(-40)"/>
  <rect x="47.49" y="43.5" width="1" height="9" transform="translate(-19.88 47.99) rotate(-45)"/>
  <rect x="38.74" y="53.05" width="1" height="9" transform="translate(-30.06 50.62) rotate(-50)"/>
  <rect x="30.85" y="63.32" width="1" height="9" transform="translate(-42.19 54.61) rotate(-55)"/>
  <rect x="23.89" y="74.25" width="1" height="9" transform="translate(-56 60.5) rotate(-60)"/>
  <rect x="17.91" y="85.74" width="1" height="9" transform="translate(-71.16 68.79) rotate(-65)"/>
  <rect x="12.95" y="97.71" width="1" height="9" transform="translate(-87.19 79.89) rotate(-70)"/>
  <rect x="9.06" y="110.07" width="1" height="9" transform="translate(-103.58 94.15) rotate(-75)"/>
  <rect x="6.25" y="122.71" width="1" height="9" transform="translate(-119.7 111.77) rotate(-80)"/>
  <rect x="4.56" y="135.56" width="1" height="9" transform="translate(-134.9 132.89) rotate(-85)"/>
  <rect x="4" y="148.5" width="1" height="9" transform="translate(-148.5 157.5) rotate(-90)" style="fill: #fbb03b;"/>
  <rect x="4.56" y="161.44" width="1" height="9" transform="translate(-159.81 185.45) rotate(-95)"/>
  <rect x="6.25" y="174.29" width="1" height="9" transform="translate(-168.14 216.48) rotate(-100)"/>
  <rect x="9.06" y="186.94" width="1" height="9" transform="translate(-172.88 250.21) rotate(-105)"/>
  <rect x="12.95" y="199.29" width="1" height="9" transform="translate(-173.44 286.13) rotate(-110)"/>
  <rect x="17.91" y="211.26" width="1" height="9" transform="translate(-169.35 323.63) rotate(-115)"/>
  <rect x="23.89" y="222.75" width="1" height="9" transform="translate(-160.21 362) rotate(-120)"/>
  <rect x="30.85" y="233.68" width="1" height="9" transform="translate(-145.76 400.47) rotate(-125)"/>
  <rect x="38.74" y="243.96" width="1" height="9" transform="translate(-125.86 438.22) rotate(-130)"/>
  <rect x="47.49" y="253.51" width="1" height="9" transform="translate(-100.51 474.38) rotate(-135)"/>
  <rect x="57.05" y="262.26" width="1" height="9" transform="translate(-69.84 508.1) rotate(-140)"/>
  <rect x="67.32" y="270.15" width="1" height="9" transform="translate(-34.15 538.52) rotate(-145)"/>
  <rect x="78.25" y="277.11" width="1" height="9" transform="translate(6.14 564.86) rotate(-150)"/>
  <rect x="89.74" y="283.09" width="1" height="9" transform="translate(50.49 586.37) rotate(-155)"/>
  <rect x="101.71" y="288.05" width="1" height="9" transform="translate(98.2 602.41) rotate(-160)"/>
  <rect x="114.06" y="291.94" width="1" height="9" transform="translate(148.5 612.43) rotate(-165)"/>
  <rect x="126.71" y="294.75" width="1" height="9" transform="translate(200.53 616.04) rotate(-170)"/>
  <rect x="139.56" y="296.44" width="1" height="9" transform="translate(253.35 612.93) rotate(-175)"/>
  <rect x="152.5" y="297" width="1" height="9" transform="translate(306 603) rotate(-180)" style="fill: red;"/>
  <rect x="165.44" y="296.44" width="1" height="9" transform="translate(357.48 586.26) rotate(175)"/>
  <rect x="178.29" y="294.75" width="1" height="9" transform="translate(406.82 562.9) rotate(170)"/>
  <rect x="190.94" y="291.94" width="1" height="9" transform="translate(453.07 533.23) rotate(165)"/>
  <rect x="203.29" y="288.05" width="1" height="9" transform="translate(495.35 497.75) rotate(160)"/>
  <rect x="215.26" y="283.09" width="1" height="9" transform="translate(532.84 457.05) rotate(155)"/>
  <rect x="226.75" y="277.11" width="1" height="9" transform="translate(564.86 411.86) rotate(150)"/>
  <rect x="237.68" y="270.15" width="1" height="9" transform="translate(590.81 363.01) rotate(145)"/>
  <rect x="247.95" y="262.26" width="1" height="9" transform="translate(610.25 311.4) rotate(140)"/>
  <rect x="257.51" y="253.51" width="1" height="9" transform="translate(622.88 258.01) rotate(135)"/>
  <rect x="266.26" y="243.96" width="1" height="9" transform="translate(628.56 203.81) rotate(130)"/>
  <rect x="274.15" y="233.68" width="1" height="9" transform="translate(627.28 149.81) rotate(125)"/>
  <rect x="281.11" y="222.75" width="1" height="9" transform="translate(619.21 97) rotate(120)"/>
  <rect x="287.09" y="211.26" width="1" height="9" transform="translate(604.67 46.3) rotate(115)"/>
  <rect x="292.05" y="199.29" width="1" height="9" transform="translate(584.1 -1.41) rotate(110)"/>
  <rect x="295.94" y="186.94" width="1" height="9" transform="translate(558.08 -45.36) rotate(105)"/>
  <rect x="298.75" y="174.29" width="1" height="9" transform="translate(527.28 -84.87) rotate(100)"/>
  <rect x="300.44" y="161.44" width="1" height="9" transform="translate(492.48 -119.39) rotate(95)"/>
  <rect x="301" y="148.5" width="1" height="9" transform="translate(454.5 -148.5) rotate(90)" style="fill: #00cb00;"/>
  <rect x="300.44" y="135.56" width="1" height="9" transform="translate(414.23 -171.94) rotate(85)"/>
  <rect x="298.75" y="122.71" width="1" height="9" transform="translate(372.56 -189.58) rotate(80)"/>
  <rect x="295.94" y="110.07" width="1" height="9" transform="translate(330.38 -201.43) rotate(75)"/>
  <rect x="292.05" y="97.71" width="1" height="9" transform="translate(288.53 -207.65) rotate(70)"/>
  <rect x="287.09" y="85.74" width="1" height="9" transform="translate(247.83 -208.54) rotate(65)"/>
  <rect x="281.11" y="74.25" width="1" height="9" transform="translate(209 -204.5) rotate(60)"/>
  <rect x="274.15" y="63.32" width="1" height="9" transform="translate(172.67 -196.05) rotate(55)"/>
  <rect x="266.26" y="53.05" width="1" height="9" transform="translate(139.37 -183.79) rotate(50)"/>
  <rect x="257.51" y="43.5" width="1" height="9" transform="translate(109.5 -168.38) rotate(45)"/>
  <rect x="247.95" y="34.74" width="1" height="9" transform="translate(83.35 -150.52) rotate(40)"/>
  <rect x="237.68" y="26.86" width="1" height="9" transform="translate(61.06 -130.94) rotate(35)"/>
  <rect x="226.75" y="19.9" width="1" height="9" transform="translate(42.64 -110.36) rotate(30)"/>
  <rect x="215.26" y="13.91" width="1" height="9" transform="translate(28 -89.46) rotate(25)"/>
  <rect x="203.29" y="8.96" width="1" height="9" transform="translate(16.89 -68.89) rotate(20)"/>
  <rect x="190.94" y="5.06" width="1" height="9" transform="translate(9 -49.22) rotate(15)"/>
  <rect x="178.29" y="2.26" width="1" height="9" transform="translate(3.89 -30.94) rotate(10)"/>
  <rect x="165.44" y=".57" width="1" height="9" transform="translate(1.07 -14.44) rotate(5)"/>
  <text transform="translate(151.33 14.1)" style="font-family: CTZhongYuanSJ, CTZhongYuanSJ; font-size: 6px;"><tspan x="0" y="0">0</tspan></text>
  <text transform="translate(151.33 14.1)" style="font-family: CTZhongYuanSJ, CTZhongYuanSJ; font-size: 6px;"><tspan x="0" y="0">0</tspan></text>
  <text transform="translate(123.95 17.08) rotate(-10)" style="font-family: CTZhongYuanSJ, CTZhongYuanSJ; font-size: 6px;"><tspan x="0" y="0">350</tspan></text>
  <text transform="translate(100.79 24.19) rotate(-20)" style="font-family: CTZhongYuanSJ, CTZhongYuanSJ; font-size: 6px;"><tspan x="0" y="0">340</tspan></text>
  <text transform="translate(79.22 35.21) rotate(-30)" style="font-family: CTZhongYuanSJ, CTZhongYuanSJ; font-size: 6px;"><tspan x="0" y="0">330</tspan></text>
  <text transform="translate(59.88 49.81) rotate(-40)" style="font-family: CTZhongYuanSJ, CTZhongYuanSJ; font-size: 6px;"><tspan x="0" y="0">320</tspan></text>
  <text transform="translate(43.38 67.55) rotate(-50)" style="font-family: CTZhongYuanSJ, CTZhongYuanSJ; font-size: 6px;"><tspan x="0" y="0">310</tspan></text>
  <text transform="translate(30.21 87.88) rotate(-60)" style="font-family: CTZhongYuanSJ, CTZhongYuanSJ; font-size: 6px;"><tspan x="0" y="0">300</tspan></text>
  <text transform="translate(20.77 110.19) rotate(-70)" style="font-family: CTZhongYuanSJ, CTZhongYuanSJ; font-size: 6px;"><tspan x="0" y="0">290</tspan></text>
  <text transform="translate(15.34 133.81) rotate(-80)" style="font-family: CTZhongYuanSJ, CTZhongYuanSJ; font-size: 6px;"><tspan x="0" y="0">280</tspan></text>
  <text transform="translate(14.1 158) rotate(-90)" style="font-family: CTZhongYuanSJ, CTZhongYuanSJ; font-size: 6px;"><tspan x="0" y="0">270</tspan></text>
  <text transform="translate(17.08 182.05) rotate(-100)" style="font-family: CTZhongYuanSJ, CTZhongYuanSJ; font-size: 6px;"><tspan x="0" y="0">260</tspan></text>
  <text transform="translate(24.19 205.21) rotate(-110)" style="font-family: CTZhongYuanSJ, CTZhongYuanSJ; font-size: 6px;"><tspan x="0" y="0">250</tspan></text>
  <text transform="translate(35.21 226.78) rotate(-120)" style="font-family: CTZhongYuanSJ, CTZhongYuanSJ; font-size: 6px;"><tspan x="0" y="0">240</tspan></text>
  <text transform="translate(49.81 246.12) rotate(-130)" style="font-family: CTZhongYuanSJ, CTZhongYuanSJ; font-size: 6px;"><tspan x="0" y="0">230</tspan></text>
  <text transform="translate(67.55 262.62) rotate(-140)" style="font-family: CTZhongYuanSJ, CTZhongYuanSJ; font-size: 6px;"><tspan x="0" y="0">220</tspan></text>
  <text transform="translate(87.88 275.79) rotate(-150)" style="font-family: CTZhongYuanSJ, CTZhongYuanSJ; font-size: 6px;"><tspan x="0" y="0">210</tspan></text>
  <text transform="translate(110.19 285.24) rotate(-160)" style="font-family: CTZhongYuanSJ, CTZhongYuanSJ; font-size: 6px;"><tspan x="0" y="0">200</tspan></text>
  <text transform="translate(133.81 290.66) rotate(-170)" style="font-family: CTZhongYuanSJ, CTZhongYuanSJ; font-size: 6px;"><tspan x="0" y="0">190</tspan></text>
  <text transform="translate(158 291.9) rotate(-180)" style="font-family: CTZhongYuanSJ, CTZhongYuanSJ; font-size: 6px;"><tspan x="0" y="0">180</tspan></text>
  <text transform="translate(182.05 288.92) rotate(170)" style="font-family: CTZhongYuanSJ, CTZhongYuanSJ; font-size: 6px;"><tspan x="0" y="0">170</tspan></text>
  <text transform="translate(205.21 281.81) rotate(160)" style="font-family: CTZhongYuanSJ, CTZhongYuanSJ; font-size: 6px;"><tspan x="0" y="0">160</tspan></text>
  <text transform="translate(226.78 270.79) rotate(150)" style="font-family: CTZhongYuanSJ, CTZhongYuanSJ; font-size: 6px;"><tspan x="0" y="0">150</tspan></text>
  <text transform="translate(246.12 256.19) rotate(140)" style="font-family: CTZhongYuanSJ, CTZhongYuanSJ; font-size: 6px;"><tspan x="0" y="0">140</tspan></text>
  <text transform="translate(262.62 238.45) rotate(130)" style="font-family: CTZhongYuanSJ, CTZhongYuanSJ; font-size: 6px;"><tspan x="0" y="0">130</tspan></text>
  <text transform="translate(275.79 218.12) rotate(120)" style="font-family: CTZhongYuanSJ, CTZhongYuanSJ; font-size: 6px;"><tspan x="0" y="0">120</tspan></text>
  <text transform="translate(285.24 195.81) rotate(110)" style="font-family: CTZhongYuanSJ, CTZhongYuanSJ; font-size: 6px;"><tspan x="0" y="0">110</tspan></text>
  <text transform="translate(290.66 172.19) rotate(100)" style="font-family: CTZhongYuanSJ, CTZhongYuanSJ; font-size: 6px;"><tspan x="0" y="0">100</tspan></text>
  <text transform="translate(291.9 149.67) rotate(90)" style="font-family: CTZhongYuanSJ, CTZhongYuanSJ; font-size: 6px;"><tspan x="0" y="0">90</tspan></text>
  <text transform="translate(289.21 125.6) rotate(80)" style="font-family: CTZhongYuanSJ, CTZhongYuanSJ; font-size: 6px;"><tspan x="0" y="0">80</tspan></text>
  <text transform="translate(282.38 102.36) rotate(70)" style="font-family: CTZhongYuanSJ, CTZhongYuanSJ; font-size: 6px;"><tspan x="0" y="0">70</tspan></text>
  <text transform="translate(271.63 80.66) rotate(60)" style="font-family: CTZhongYuanSJ, CTZhongYuanSJ; font-size: 6px;"><tspan x="0" y="0">60</tspan></text>
  <text transform="translate(257.26 61.16) rotate(50)" style="font-family: CTZhongYuanSJ, CTZhongYuanSJ; font-size: 6px;"><tspan x="0" y="0">50</tspan></text>
  <text transform="translate(239.73 44.45) rotate(40)" style="font-family: CTZhongYuanSJ, CTZhongYuanSJ; font-size: 6px;"><tspan x="0" y="0">40</tspan></text>
  <text transform="translate(219.56 31.04) rotate(30)" style="font-family: CTZhongYuanSJ, CTZhongYuanSJ; font-size: 6px;"><tspan x="0" y="0">30</tspan></text>
  <text transform="translate(197.37 21.33) rotate(20)" style="font-family: CTZhongYuanSJ, CTZhongYuanSJ; font-size: 6px;"><tspan x="0" y="0">20</tspan></text>
  <text transform="translate(173.84 15.63) rotate(10)" style="font-family: CTZhongYuanSJ, CTZhongYuanSJ; font-size: 6px;"><tspan x="0" y="0">10</tspan></text>
  <circle cx="153" cy="153" r="130.53" style="fill: none; stroke: #000; stroke-miterlimit: 10;"/>
  <circle cx="153" cy="153" r="105.92" style="fill: none; stroke: #000; stroke-miterlimit: 10;"/>
  <circle cx="153" cy="153" r="77.51" style="fill: none; stroke: #000; stroke-miterlimit: 10;"/>
  <circle cx="153" cy="153" r="50.79" style="fill: none; stroke: #000; stroke-miterlimit: 10;"/>
  <line x1="32.41" y1="103.05" x2="273.59" y2="202.95" style="fill: none; stroke: #000; stroke-miterlimit: 10;"/>
  <line x1="32.41" y1="202.95" x2="273.59" y2="103.05" style="fill: none; stroke: #000; stroke-miterlimit: 10;"/>
  <line x1="103.05" y1="273.59" x2="202.95" y2="32.41" style="fill: none; stroke: #000; stroke-miterlimit: 10;"/>
  <line x1="202.95" y1="273.59" x2="103.05" y2="32.41" style="fill: none; stroke: #000; stroke-miterlimit: 10;"/>
  <line x1="103.05" y1="32.41" x2="123.33" y2="81.39" style="fill: none; stroke: #000; stroke-miterlimit: 10;"/>
  <line x1="112.46" y1="55.14" x2="123.33" y2="81.39" style="fill: none; stroke: #000; stroke-miterlimit: 10;"/>
  <line x1="112.46" y1="55.14" x2="123.33" y2="81.39" style="fill: none; stroke: #000; stroke-miterlimit: 10;"/>
  <line x1="88.52" y1="68.96" x2="105.81" y2="91.5" style="fill: none; stroke: #000; stroke-miterlimit: 10;"/>
  <line x1="68.96" y1="88.52" x2="91.5" y2="105.81" style="fill: none; stroke: #000; stroke-miterlimit: 10;"/>
  <line x1="55.14" y1="112.46" x2="81.38" y2="123.34" style="fill: none; stroke: #000; stroke-miterlimit: 10;"/>
  <line x1="47.98" y1="139.17" x2="76.15" y2="142.88" style="fill: none; stroke: #000; stroke-miterlimit: 10;"/>
  <line x1="47.98" y1="166.83" x2="76.15" y2="163.12" style="fill: none; stroke: #000; stroke-miterlimit: 10;"/>
  <line x1="55.14" y1="193.53" x2="81.38" y2="182.66" style="fill: none; stroke: #000; stroke-miterlimit: 10;"/>
  <line x1="68.96" y1="217.48" x2="91.5" y2="200.19" style="fill: none; stroke: #000; stroke-miterlimit: 10;"/>
  <line x1="88.52" y1="237.03" x2="105.81" y2="214.5" style="fill: none; stroke: #000; stroke-miterlimit: 10;"/>
  <line x1="112.46" y1="250.86" x2="123.33" y2="224.61" style="fill: none; stroke: #000; stroke-miterlimit: 10;"/>
  <line x1="139.17" y1="258.02" x2="142.88" y2="229.85" style="fill: none; stroke: #000; stroke-miterlimit: 10;"/>
  <line x1="166.82" y1="258.02" x2="163.12" y2="229.85" style="fill: none; stroke: #000; stroke-miterlimit: 10;"/>
  <line x1="193.53" y1="250.86" x2="182.66" y2="224.61" style="fill: none; stroke: #000; stroke-miterlimit: 10;"/>
  <line x1="217.48" y1="237.03" x2="200.19" y2="214.5" style="fill: none; stroke: #000; stroke-miterlimit: 10;"/>
  <line x1="237.03" y1="217.48" x2="214.5" y2="200.19" style="fill: none; stroke: #000; stroke-miterlimit: 10;"/>
  <line x1="250.86" y1="193.53" x2="224.61" y2="182.66" style="fill: none; stroke: #000; stroke-miterlimit: 10;"/>
  <line x1="258.02" y1="166.83" x2="229.85" y2="163.12" style="fill: none; stroke: #000; stroke-miterlimit: 10;"/>
  <line x1="258.02" y1="139.17" x2="229.85" y2="142.88" style="fill: none; stroke: #000; stroke-miterlimit: 10;"/>
  <line x1="250.86" y1="112.46" x2="224.61" y2="123.34" style="fill: none; stroke: #000; stroke-miterlimit: 10;"/>
  <line x1="237.03" y1="88.52" x2="214.5" y2="105.81" style="fill: none; stroke: #000; stroke-miterlimit: 10;"/>
  <line x1="217.48" y1="68.96" x2="200.19" y2="91.5" style="fill: none; stroke: #000; stroke-miterlimit: 10;"/>
  <line x1="193.53" y1="55.14" x2="182.66" y2="81.39" style="fill: none; stroke: #000; stroke-miterlimit: 10;"/>
  <line x1="166.82" y1="47.98" x2="163.12" y2="76.15" style="fill: none; stroke: #000; stroke-miterlimit: 10;"/>
  <line x1="139.17" y1="47.98" x2="142.88" y2="76.15" style="fill: none; stroke: #000; stroke-miterlimit: 10;"/>
  <text transform="translate(148 38.54)" style="font-family: MicrosoftYaHei, &apos;Microsoft YaHei&apos;; font-size: 10px;"><tspan x="0" y="0"></tspan></text>
  <text transform="translate(148 64.54)" style="font-family: MicrosoftYaHei, &apos;Microsoft YaHei&apos;; font-size: 10px;"><tspan x="0" y="0"></tspan></text>
  <text transform="translate(148 117.22)" style="font-family: MicrosoftYaHei, &apos;Microsoft YaHei&apos;; font-size: 10px;"><tspan x="0" y="0"></tspan></text>
  <text transform="translate(124.16 131.24) rotate(-45)" style="font-family: MicrosoftYaHei, &apos;Microsoft YaHei&apos;; font-size: 10px;"><tspan x="0" y="0"></tspan></text>
  <text transform="translate(117.22 158) rotate(-90)" style="font-family: MicrosoftYaHei, &apos;Microsoft YaHei&apos;; font-size: 10px;"><tspan x="0" y="0"></tspan></text>
  <text transform="translate(131.23 181.83) rotate(-135)" style="font-family: MicrosoftYaHei, &apos;Microsoft YaHei&apos;; font-size: 10px;"><tspan x="0" y="0"></tspan></text>
  <text transform="translate(158 188.78) rotate(-180)" style="font-family: MicrosoftYaHei, &apos;Microsoft YaHei&apos;; font-size: 10px;"><tspan x="0" y="0"></tspan></text>
  <text transform="translate(181.83 174.76) rotate(135)" style="font-family: MicrosoftYaHei, &apos;Microsoft YaHei&apos;; font-size: 10px;"><tspan x="0" y="0"></tspan></text>
  <text transform="translate(188.78 148) rotate(90)" style="font-family: MicrosoftYaHei, &apos;Microsoft YaHei&apos;; font-size: 10px;"><tspan x="0" y="0"></tspan></text>
  <text transform="translate(174.76 124.16) rotate(45)" style="font-family: MicrosoftYaHei, &apos;Microsoft YaHei&apos;; font-size: 10px;"><tspan x="0" y="0"></tspan></text>
  <text transform="translate(125.27 68.85) rotate(-15)" style="font-family: MicrosoftYaHei, &apos;Microsoft YaHei&apos;; font-size: 10px;"><tspan x="0" y="0"></tspan></text>
  <text transform="translate(104.44 78.89) rotate(-30)" style="font-family: MicrosoftYaHei, &apos;Microsoft YaHei&apos;; font-size: 10px;"><tspan x="0" y="0"></tspan></text>
  <text transform="translate(86.91 93.99) rotate(-45)" style="font-family: MicrosoftYaHei, &apos;Microsoft YaHei&apos;; font-size: 10px;"><tspan x="0" y="0"></tspan></text>
  <text transform="translate(73.89 113.1) rotate(-60)" style="font-family: MicrosoftYaHei, &apos;Microsoft YaHei&apos;; font-size: 10px;"><tspan x="0" y="0"></tspan></text>
  <text transform="translate(66.26 134.94) rotate(-75)" style="font-family: MicrosoftYaHei, &apos;Microsoft YaHei&apos;; font-size: 10px;"><tspan x="0" y="0"></tspan></text>
  <text transform="translate(64.54 158) rotate(-90)" style="font-family: MicrosoftYaHei, &apos;Microsoft YaHei&apos;; font-size: 10px;"><tspan x="0" y="0"></tspan></text>
  <text transform="translate(68.85 180.73) rotate(-105)" style="font-family: MicrosoftYaHei, &apos;Microsoft YaHei&apos;; font-size: 10px;"><tspan x="0" y="0"></tspan></text>
  <text transform="translate(78.89 201.56) rotate(-120)" style="font-family: MicrosoftYaHei, &apos;Microsoft YaHei&apos;; font-size: 10px;"><tspan x="0" y="0"></tspan></text>
  <text transform="translate(93.99 219.09) rotate(-135)" style="font-family: MicrosoftYaHei, &apos;Microsoft YaHei&apos;; font-size: 10px;"><tspan x="0" y="0"></tspan></text>
  <text transform="translate(113.1 232.11) rotate(-150)" style="font-family: MicrosoftYaHei, &apos;Microsoft YaHei&apos;; font-size: 10px;"><tspan x="0" y="0"></tspan></text>
  <text transform="translate(134.94 239.74) rotate(-165)" style="font-family: MicrosoftYaHei, &apos;Microsoft YaHei&apos;; font-size: 10px;"><tspan x="0" y="0"></tspan></text>
  <text transform="translate(158 241.46) rotate(-180)" style="font-family: MicrosoftYaHei, &apos;Microsoft YaHei&apos;; font-size: 10px;"><tspan x="0" y="0"></tspan></text>
  <text transform="translate(180.73 237.15) rotate(165)" style="font-family: MicrosoftYaHei, &apos;Microsoft YaHei&apos;; font-size: 10px;"><tspan x="0" y="0"></tspan></text>
  <text transform="translate(201.56 227.11) rotate(150)" style="font-family: MicrosoftYaHei, &apos;Microsoft YaHei&apos;; font-size: 10px;"><tspan x="0" y="0"></tspan></text>
  <text transform="translate(219.09 212.01) rotate(135)" style="font-family: MicrosoftYaHei, &apos;Microsoft YaHei&apos;; font-size: 10px;"><tspan x="0" y="0"></tspan></text>
  <text transform="translate(232.11 192.9) rotate(120)" style="font-family: MicrosoftYaHei, &apos;Microsoft YaHei&apos;; font-size: 10px;"><tspan x="0" y="0"></tspan></text>
  <text transform="translate(239.74 171.06) rotate(105)" style="font-family: MicrosoftYaHei, &apos;Microsoft YaHei&apos;; font-size: 10px;"><tspan x="0" y="0"></tspan></text>
  <text transform="translate(241.46 148) rotate(90)" style="font-family: MicrosoftYaHei, &apos;Microsoft YaHei&apos;; font-size: 10px;"><tspan x="0" y="0"></tspan></text>
  <text transform="translate(237.15 125.27) rotate(75)" style="font-family: MicrosoftYaHei, &apos;Microsoft YaHei&apos;; font-size: 10px;"><tspan x="0" y="0"></tspan></text>
  <text transform="translate(227.11 104.43) rotate(60)" style="font-family: MicrosoftYaHei, &apos;Microsoft YaHei&apos;; font-size: 10px;"><tspan x="0" y="0"></tspan></text>
  <text transform="translate(212.02 86.91) rotate(45)" style="font-family: MicrosoftYaHei, &apos;Microsoft YaHei&apos;; font-size: 10px;"><tspan x="0" y="0"></tspan></text>
  <text transform="translate(192.9 73.89) rotate(30)" style="font-family: MicrosoftYaHei, &apos;Microsoft YaHei&apos;; font-size: 10px;"><tspan x="0" y="0"></tspan></text>
  <text transform="translate(171.06 66.26) rotate(15)" style="font-family: MicrosoftYaHei, &apos;Microsoft YaHei&apos;; font-size: 10px;"><tspan x="0" y="0"></tspan></text>
  <text transform="translate(64.99 79.14) rotate(-45)" style="font-family: MicrosoftYaHei, &apos;Microsoft YaHei&apos;; font-size: 10px;"><tspan x="0" y="0"></tspan></text>
  <text transform="translate(38.54 158) rotate(-90)" style="font-family: MicrosoftYaHei, &apos;Microsoft YaHei&apos;; font-size: 10px;"><tspan x="0" y="0"></tspan></text>
  <text transform="translate(79.14 241.01) rotate(-135)" style="font-family: MicrosoftYaHei, &apos;Microsoft YaHei&apos;; font-size: 10px;"><tspan x="0" y="0"></tspan></text>
  <text transform="translate(158 267.46) rotate(-180)" style="font-family: MicrosoftYaHei, &apos;Microsoft YaHei&apos;; font-size: 10px;"><tspan x="0" y="0"></tspan></text>
  <text transform="translate(241 226.86) rotate(135)" style="font-family: MicrosoftYaHei, &apos;Microsoft YaHei&apos;; font-size: 10px;"><tspan x="0" y="0"></tspan></text>
  <text transform="translate(267.46 148) rotate(90)" style="font-family: MicrosoftYaHei, &apos;Microsoft YaHei&apos;; font-size: 10px;"><tspan x="0" y="0"></tspan></text>
  <text transform="translate(226.86 65) rotate(45)" style="font-family: MicrosoftYaHei, &apos;Microsoft YaHei&apos;; font-size: 10px;"><tspan x="0" y="0"></tspan></text>
  <line x1="138.64" y1="88.89" x2="167.35" y2="88.89" style="fill: #fff; stroke: #000; stroke-miterlimit: 10; stroke-width: 2px;"/>
  <line x1="154.02" y1="83.06" x2="167.35" y2="83.06" style="fill: #fff; stroke: #000; stroke-miterlimit: 10; stroke-width: 2px;"/>
  <line x1="154.02" y1="94.71" x2="167.35" y2="94.71" style="fill: #fff; stroke: #000; stroke-miterlimit: 10; stroke-width: 2px;"/>
  <line x1="138.64" y1="83.06" x2="151.98" y2="83.06" style="fill: #fff; stroke: #000; stroke-miterlimit: 10; stroke-width: 2px;"/>
  <line x1="138.64" y1="94.71" x2="151.98" y2="94.71" style="fill: #fff; stroke: #000; stroke-miterlimit: 10; stroke-width: 2px;"/>
  <line x1="97.51" y1="117.82" x2="117.81" y2="97.52" style="fill: #fff; stroke: #000; stroke-miterlimit: 10; stroke-width: 2px;"/>
  <line x1="93.4" y1="113.7" x2="113.69" y2="93.4" style="fill: #fff; stroke: #000; stroke-miterlimit: 10; stroke-width: 2px;"/>
  <line x1="101.63" y1="121.93" x2="121.93" y2="101.64" style="fill: #fff; stroke: #000; stroke-miterlimit: 10; stroke-width: 2px;"/>
  <line x1="104.26" y1="102.83" x2="113.69" y2="93.4" style="fill: #fff; stroke: #000; stroke-miterlimit: 10; stroke-width: 2px;"/>
  <line x1="112.5" y1="111.07" x2="121.93" y2="101.64" style="fill: #fff; stroke: #000; stroke-miterlimit: 10; stroke-width: 2px;"/>
  <line x1="93.4" y1="113.7" x2="102.82" y2="104.27" style="fill: #fff; stroke: #000; stroke-miterlimit: 10; stroke-width: 2px;"/>
  <line x1="101.63" y1="121.93" x2="111.06" y2="112.51" style="fill: #fff; stroke: #000; stroke-miterlimit: 10; stroke-width: 2px;"/>
  <line x1="88.89" y1="167.35" x2="88.89" y2="138.65" style="fill: #fff; stroke: #000; stroke-miterlimit: 10; stroke-width: 2px;"/>
  <line x1="94.71" y1="167.35" x2="94.71" y2="138.65" style="fill: #fff; stroke: #000; stroke-miterlimit: 10; stroke-width: 2px;"/>
  <line x1="83.06" y1="151.98" x2="83.06" y2="138.65" style="fill: #fff; stroke: #000; stroke-miterlimit: 10; stroke-width: 2px;"/>
  <line x1="94.71" y1="151.98" x2="94.71" y2="138.65" style="fill: #fff; stroke: #000; stroke-miterlimit: 10; stroke-width: 2px;"/>
  <line x1="83.06" y1="167.35" x2="83.06" y2="154.02" style="fill: #fff; stroke: #000; stroke-miterlimit: 10; stroke-width: 2px;"/>
  <line x1="94.71" y1="167.35" x2="94.71" y2="154.02" style="fill: #fff; stroke: #000; stroke-miterlimit: 10; stroke-width: 2px;"/>
  <line x1="102.83" y1="201.73" x2="93.4" y2="192.3" style="fill: #fff; stroke: #000; stroke-miterlimit: 10; stroke-width: 2px;"/>
  <line x1="111.06" y1="193.5" x2="101.64" y2="184.07" style="fill: #fff; stroke: #000; stroke-miterlimit: 10; stroke-width: 2px;"/>
  <line x1="113.7" y1="212.6" x2="104.27" y2="203.17" style="fill: #fff; stroke: #000; stroke-miterlimit: 10; stroke-width: 2px;"/>
  <line x1="121.93" y1="204.36" x2="112.5" y2="194.94" style="fill: #fff; stroke: #000; stroke-miterlimit: 10; stroke-width: 2px;"/>
  <line x1="106.95" y1="197.61" x2="97.52" y2="188.18" style="fill: #fff; stroke: #000; stroke-miterlimit: 10; stroke-width: 2px;"/>
  <line x1="117.81" y1="208.48" x2="108.39" y2="199.05" style="fill: #fff; stroke: #000; stroke-miterlimit: 10; stroke-width: 2px;"/>
  <line x1="167.35" y1="222.94" x2="138.65" y2="222.94" style="fill: #fff; stroke: #000; stroke-miterlimit: 10; stroke-width: 2px;"/>
  <line x1="167.35" y1="211.29" x2="138.65" y2="211.29" style="fill: #fff; stroke: #000; stroke-miterlimit: 10; stroke-width: 2px;"/>
  <line x1="167.35" y1="222.94" x2="154.02" y2="222.94" style="fill: #fff; stroke: #000; stroke-miterlimit: 10; stroke-width: 2px;"/>
  <line x1="151.98" y1="217.11" x2="138.65" y2="217.11" style="fill: #fff; stroke: #000; stroke-miterlimit: 10; stroke-width: 2px;"/>
  <line x1="167.35" y1="217.11" x2="154.02" y2="217.11" style="fill: #fff; stroke: #000; stroke-miterlimit: 10; stroke-width: 2px;"/>
  <line x1="167.35" y1="211.29" x2="154.02" y2="211.29" style="fill: #fff; stroke: #000; stroke-miterlimit: 10; stroke-width: 2px;"/>
  <line x1="208.48" y1="188.18" x2="188.18" y2="208.48" style="fill: #fff; stroke: #000; stroke-miterlimit: 10; stroke-width: 2px;"/>
  <line x1="212.6" y1="192.3" x2="192.3" y2="212.6" style="fill: #fff; stroke: #000; stroke-miterlimit: 10; stroke-width: 2px;"/>
  <line x1="201.73" y1="203.17" x2="192.3" y2="212.6" style="fill: #fff; stroke: #000; stroke-miterlimit: 10; stroke-width: 2px;"/>
  <line x1="193.49" y1="194.93" x2="184.06" y2="204.36" style="fill: #fff; stroke: #000; stroke-miterlimit: 10; stroke-width: 2px;"/>
  <line x1="212.6" y1="192.3" x2="203.17" y2="201.73" style="fill: #fff; stroke: #000; stroke-miterlimit: 10; stroke-width: 2px;"/>
  <line x1="204.36" y1="184.06" x2="194.93" y2="193.49" style="fill: #fff; stroke: #000; stroke-miterlimit: 10; stroke-width: 2px;"/>
  <line x1="211.29" y1="138.65" x2="211.29" y2="167.35" style="fill: #fff; stroke: #000; stroke-miterlimit: 10; stroke-width: 2px;"/>
  <line x1="222.94" y1="154.02" x2="222.94" y2="167.35" style="fill: #fff; stroke: #000; stroke-miterlimit: 10; stroke-width: 2px;"/>
  <line x1="211.29" y1="154.02" x2="211.29" y2="167.35" style="fill: #fff; stroke: #000; stroke-miterlimit: 10; stroke-width: 2px;"/>
  <line x1="222.94" y1="138.65" x2="222.94" y2="151.98" style="fill: #fff; stroke: #000; stroke-miterlimit: 10; stroke-width: 2px;"/>
  <line x1="217.11" y1="154.02" x2="217.11" y2="167.35" style="fill: #fff; stroke: #000; stroke-miterlimit: 10; stroke-width: 2px;"/>
  <line x1="217.11" y1="138.65" x2="217.11" y2="151.98" style="fill: #fff; stroke: #000; stroke-miterlimit: 10; stroke-width: 2px;"/>
  <line x1="211.29" y1="138.65" x2="211.29" y2="151.98" style="fill: #fff; stroke: #000; stroke-miterlimit: 10; stroke-width: 2px;"/>
  <line x1="192.3" y1="93.4" x2="212.6" y2="113.69" style="fill: #fff; stroke: #000; stroke-miterlimit: 10; stroke-width: 2px;"/>
  <line x1="203.17" y1="104.27" x2="212.6" y2="113.69" style="fill: #fff; stroke: #000; stroke-miterlimit: 10; stroke-width: 2px;"/>
  <line x1="194.93" y1="112.5" x2="204.36" y2="121.93" style="fill: #fff; stroke: #000; stroke-miterlimit: 10; stroke-width: 2px;"/>
  <line x1="192.3" y1="93.4" x2="201.73" y2="102.83" style="fill: #fff; stroke: #000; stroke-miterlimit: 10; stroke-width: 2px;"/>
  <line x1="184.06" y1="101.63" x2="193.49" y2="111.06" style="fill: #fff; stroke: #000; stroke-miterlimit: 10; stroke-width: 2px;"/>
  <line x1="199.05" y1="108.38" x2="208.48" y2="117.81" style="fill: #fff; stroke: #000; stroke-miterlimit: 10; stroke-width: 2px;"/>
  <line x1="188.18" y1="97.52" x2="197.61" y2="106.94" style="fill: #fff; stroke: #000; stroke-miterlimit: 10; stroke-width: 2px;"/>
</svg>